<?xml version="1.0" standalone="no"?>
<!DOCTYPE svg PUBLIC "-//W3C//DTD SVG 20010904//EN"
 "http://www.w3.org/TR/2001/REC-SVG-20010904/DTD/svg10.dtd">
<svg version="1.0" xmlns="http://www.w3.org/2000/svg"
 width="880.000000pt" height="880.000000pt" viewBox="0 0 880.000000 880.000000"
 preserveAspectRatio="xMidYMid meet">
<metadata>
Created by potrace 1.14, written by Peter Selinger 2001-2017
</metadata>
<g transform="translate(0.000000,880.000000) scale(0.100000,-0.100000)"
fill="#000000" stroke="none">
<path d="M4206 8782 c-2 -1 -45 -5 -97 -7 -103 -6 -157 -12 -170 -21 -5 -3 -9
0 -9 6 0 6 -4 8 -10 5 -12 -7 -31 -11 -101 -20 -30 -4 -65 -9 -79 -11 -14 -2
-41 -6 -60 -9 -40 -6 -75 -13 -75 -15 0 -1 -9 -3 -20 -4 -11 -1 -51 -9 -90
-16 -38 -8 -73 -13 -77 -12 -5 1 -8 -2 -8 -6 0 -5 -6 -9 -12 -9 -27 -1 -92
-16 -168 -38 -30 -9 -62 -18 -70 -20 -8 -2 -15 -4 -15 -5 0 -1 -8 -3 -18 -5
-10 -2 -26 -7 -35 -11 -15 -6 -27 -10 -57 -17 -5 -1 -16 -6 -22 -10 -7 -5 -17
-5 -23 -2 -5 3 -10 1 -10 -4 0 -6 -9 -11 -20 -11 -11 0 -20 -5 -20 -11 0 -5
-4 -7 -10 -4 -5 3 -16 3 -22 -2 -7 -4 -15 -8 -18 -9 -6 -1 -36 -12 -80 -30
-68 -27 -95 -37 -102 -39 -5 -2 -11 -4 -15 -5 -5 -1 -11 -2 -15 -1 -5 0 -8 -3
-8 -9 0 -5 -18 -14 -40 -20 -22 -6 -40 -16 -40 -22 0 -6 -3 -9 -6 -5 -4 3 -21
-1 -38 -10 -17 -10 -33 -18 -36 -18 -3 -1 -41 -20 -85 -43 -44 -22 -100 -51
-125 -64 -25 -13 -51 -29 -58 -35 -7 -7 -20 -13 -28 -13 -8 0 -14 -4 -14 -10
0 -5 -6 -10 -13 -10 -7 0 -36 -16 -65 -35 -28 -20 -52 -33 -52 -30 0 3 -8 -2
-17 -11 -10 -8 -43 -31 -73 -51 -30 -20 -58 -40 -61 -45 -3 -6 -10 -10 -15 -9
-9 0 -45 -24 -74 -49 -9 -8 -25 -21 -36 -28 -10 -7 -31 -20 -46 -31 -16 -10
-25 -21 -21 -24 3 -4 0 -7 -9 -7 -8 0 -23 -9 -33 -20 -10 -11 -24 -20 -32 -20
-8 0 -11 -4 -8 -10 3 -5 2 -10 -4 -10 -6 0 -24 -13 -40 -29 -16 -16 -32 -27
-35 -24 -2 3 -9 -5 -16 -16 -6 -12 -15 -19 -21 -16 -5 4 -9 -2 -9 -11 0 -10
-3 -15 -6 -12 -3 4 -33 -20 -67 -53 -33 -32 -64 -59 -68 -59 -4 0 -11 -9 -14
-20 -4 -11 -9 -19 -13 -17 -4 3 -35 -24 -69 -59 -34 -35 -59 -64 -57 -64 2 0
-4 -8 -13 -18 -10 -11 -21 -17 -25 -15 -5 2 -8 1 -8 -4 0 -8 -33 -47 -85 -105
-14 -14 -25 -32 -25 -39 0 -7 -3 -10 -6 -6 -4 3 -26 -20 -51 -51 -24 -31 -48
-58 -54 -60 -5 -2 -9 -10 -9 -18 0 -8 -7 -17 -15 -20 -8 -4 -15 -12 -15 -19 0
-7 -4 -15 -8 -17 -4 -1 -23 -25 -42 -52 -19 -28 -43 -58 -52 -68 -10 -10 -18
-24 -18 -30 0 -7 -12 -24 -25 -37 -14 -13 -25 -27 -25 -33 0 -5 -6 -16 -12
-23 -31 -34 -36 -43 -31 -49 4 -3 1 -6 -6 -6 -7 0 -9 -4 -6 -10 3 -5 2 -10 -3
-10 -5 0 -15 -13 -22 -30 -7 -16 -16 -30 -20 -30 -5 0 -13 -13 -19 -30 -5 -16
-15 -30 -22 -30 -7 0 -9 -3 -6 -6 6 -6 -19 -61 -34 -74 -9 -9 -70 -130 -64
-130 3 0 -4 -9 -15 -20 -12 -12 -18 -25 -15 -30 4 -6 1 -10 -5 -10 -6 0 -8 -4
-5 -10 3 -5 1 -10 -5 -10 -6 0 -8 -4 -5 -10 3 -5 1 -10 -5 -10 -6 0 -8 -4 -5
-10 3 -5 1 -10 -4 -10 -6 0 -11 -3 -10 -7 2 -14 -13 -53 -20 -53 -4 0 -7 -9
-8 -20 -1 -11 -9 -27 -17 -36 -19 -19 -21 -28 -4 -18 7 4 5 -2 -4 -13 -10 -11
-18 -27 -18 -36 0 -9 -4 -17 -8 -17 -5 0 -9 -6 -9 -12 -1 -15 -26 -81 -33 -88
-5 -5 -10 -22 -14 -48 -1 -7 -7 -17 -13 -23 -6 -6 -9 -18 -6 -25 3 -8 0 -14
-7 -14 -7 0 -10 -7 -7 -15 4 -8 2 -17 -4 -20 -5 -4 -7 -11 -4 -16 4 -5 2 -9
-3 -9 -5 0 -9 -7 -10 -15 -1 -8 -3 -22 -4 -30 -1 -8 -5 -15 -10 -15 -4 0 -7
-3 -6 -7 1 -5 -8 -42 -21 -83 -13 -41 -25 -83 -27 -92 -7 -30 -12 -52 -23 -86
-5 -18 -10 -35 -10 -37 -1 -3 -1 -6 -2 -7 -3 -10 -10 -47 -13 -68 -2 -14 -5
-25 -6 -25 -4 0 -12 -42 -12 -67 0 -16 -4 -28 -9 -28 -4 0 -6 -9 -4 -20 2 -11
0 -22 -4 -25 -5 -2 -7 -16 -6 -30 2 -14 0 -25 -5 -25 -4 0 -7 -14 -6 -31 1
-16 -1 -32 -5 -35 -4 -2 -6 -14 -4 -26 3 -11 2 -25 -2 -31 -7 -11 -16 -87 -16
-129 1 -16 -2 -28 -6 -28 -3 0 -7 -26 -8 -58 -4 -110 -9 -157 -17 -170 -4 -6
-3 -12 3 -12 6 0 8 -9 3 -22 -9 -27 -7 -341 3 -513 4 -66 7 -126 8 -132 0 -7
3 -13 6 -13 3 0 7 -19 7 -43 1 -43 10 -128 20 -182 3 -16 7 -41 9 -55 1 -14 4
-25 5 -25 2 0 3 -12 4 -27 1 -15 5 -30 8 -33 4 -4 4 -13 1 -21 -3 -8 -1 -14 3
-14 5 0 10 -11 11 -25 1 -14 3 -36 4 -50 1 -14 6 -25 11 -25 5 0 7 -4 4 -8 -3
-4 0 -26 5 -48 9 -36 16 -66 24 -104 2 -8 4 -15 5 -15 2 0 10 -35 15 -61 1
-12 8 -31 14 -43 7 -11 8 -21 4 -21 -4 0 -2 -5 5 -12 7 -7 12 -25 12 -40 0
-15 4 -28 8 -28 4 0 9 -12 10 -27 1 -15 7 -30 13 -33 5 -4 9 -11 7 -16 -1 -5
4 -20 11 -33 9 -17 10 -21 1 -16 -7 4 -5 -4 4 -17 9 -14 13 -28 9 -31 -3 -4
-1 -7 5 -7 7 0 12 -6 12 -14 0 -12 26 -82 56 -151 7 -16 13 -33 13 -38 0 -4 8
-22 17 -40 30 -56 34 -66 34 -78 0 -6 7 -17 15 -26 8 -8 13 -19 10 -24 -4 -5
-1 -9 5 -9 6 0 8 -5 5 -10 -3 -5 -1 -10 5 -10 7 0 10 -6 7 -14 -3 -8 1 -17 9
-20 8 -3 13 -9 12 -13 -1 -4 9 -28 22 -53 13 -25 23 -48 22 -53 -1 -4 3 -7 9
-7 5 0 7 -5 4 -10 -3 -5 -2 -10 3 -10 5 0 12 -8 15 -17 12 -38 175 -305 189
-311 4 -2 8 -9 8 -16 0 -7 9 -21 20 -31 11 -10 20 -24 20 -32 0 -7 4 -13 9
-13 5 0 12 -8 15 -17 3 -10 17 -30 31 -45 14 -16 22 -28 18 -28 -4 -1 3 -10
16 -20 13 -11 20 -20 15 -20 -4 0 1 -7 12 -15 10 -8 15 -15 11 -15 -4 0 6 -13
23 -30 16 -16 30 -34 30 -39 0 -5 10 -17 22 -25 12 -9 19 -16 14 -16 -5 0 5
-14 23 -30 17 -17 31 -35 31 -40 0 -6 7 -13 15 -16 8 -4 15 -10 15 -14 0 -4
28 -37 62 -74 35 -36 81 -85 103 -108 22 -24 51 -51 65 -61 13 -9 21 -17 16
-17 -5 0 3 -11 18 -25 15 -14 29 -25 30 -25 2 0 37 -33 78 -72 41 -40 78 -74
82 -75 4 0 24 -16 45 -35 20 -18 55 -46 77 -62 21 -17 43 -36 47 -43 4 -7 14
-13 22 -13 7 0 15 -3 17 -7 5 -12 86 -73 96 -73 6 0 13 -7 16 -16 3 -8 10 -13
15 -10 5 4 11 2 13 -3 4 -10 213 -151 224 -151 4 0 15 -6 23 -14 9 -7 36 -24
61 -37 25 -13 56 -32 69 -41 13 -10 27 -15 32 -12 5 3 9 0 9 -5 0 -6 7 -11 15
-11 8 0 15 -5 15 -11 0 -5 4 -8 9 -4 5 3 12 1 16 -5 6 -10 89 -51 114 -56 8
-1 17 -7 20 -11 7 -10 67 -36 77 -33 4 1 10 -2 13 -7 9 -13 131 -64 131 -55 0
4 4 1 9 -6 4 -7 14 -15 22 -16 8 -2 27 -8 42 -14 16 -7 30 -12 31 -12 2 0 21
-8 42 -17 22 -9 44 -17 49 -18 6 -1 18 -4 28 -8 29 -12 52 -20 62 -23 6 -1 29
-9 53 -18 23 -8 42 -13 42 -11 0 2 17 -3 37 -11 20 -9 44 -17 52 -19 9 -2 36
-9 61 -16 57 -16 70 -19 145 -33 6 -1 16 -5 23 -10 7 -4 16 -6 18 -3 3 3 20
-1 39 -8 18 -8 35 -12 38 -9 3 3 12 2 19 -2 7 -5 24 -9 38 -10 14 -1 25 -2 25
-3 0 -4 41 -10 165 -27 19 -3 46 -7 60 -10 14 -2 48 -7 75 -10 28 -2 70 -7 95
-9 280 -28 679 -23 925 11 22 3 59 6 82 7 24 1 43 4 43 7 0 3 12 6 28 7 48 3
104 14 125 24 14 8 17 8 13 0 -5 -7 2 -7 21 -1 15 6 44 12 63 14 19 3 35 5 35
6 0 2 37 10 58 12 9 1 17 6 17 10 0 4 7 5 15 2 8 -4 15 -2 15 2 0 5 10 10 23
11 31 3 55 8 107 23 25 7 50 13 55 14 6 1 16 5 23 9 6 5 12 6 12 3 0 -3 15 1
34 9 18 8 36 11 40 8 3 -4 6 -1 6 5 0 7 3 11 8 10 12 -2 66 14 80 25 6 5 12 7
12 3 0 -6 56 13 117 40 17 8 38 14 47 14 9 0 16 5 16 10 0 6 3 9 8 8 6 -2 32
7 82 27 3 1 20 8 38 14 17 7 32 18 32 24 0 6 3 7 7 4 3 -4 17 0 31 9 13 9 21
11 17 4 -4 -6 10 -1 31 13 22 13 41 24 44 25 16 3 121 55 125 63 4 5 13 9 21
9 9 0 22 7 31 15 8 8 18 13 23 10 4 -3 11 2 14 11 4 9 9 14 13 11 3 -3 25 7
49 24 24 16 44 27 44 23 0 -3 16 6 35 20 19 15 35 23 35 19 0 -4 4 -3 8 3 4 5
25 21 47 34 22 14 48 31 58 40 10 8 21 15 25 15 4 0 30 17 57 37 28 20 53 36
56 35 3 -1 17 11 32 27 15 16 27 26 27 23 0 -7 29 14 62 46 10 9 18 14 18 10
0 -5 4 -3 8 2 4 6 30 28 57 50 28 22 61 51 75 65 14 14 28 25 30 25 5 0 55 43
104 90 12 11 40 37 63 57 23 20 39 39 35 42 -3 3 0 6 7 6 14 0 81 67 73 75 -3
3 0 5 7 5 14 0 80 69 81 83 0 5 5 5 10 2 6 -3 10 -1 10 5 0 6 16 26 35 46 19
19 35 37 35 40 0 3 12 18 28 34 15 16 39 44 54 62 79 96 118 147 118 152 0 2
13 19 30 37 16 18 28 35 26 37 -2 2 9 17 25 35 16 17 29 37 29 44 0 7 3 13 8
13 4 0 18 20 32 45 13 24 30 47 38 50 7 3 10 9 7 15 -3 5 -1 10 5 10 6 0 9 4
5 9 -3 6 0 13 7 18 14 9 27 28 59 91 13 23 27 42 31 42 5 0 7 4 3 9 -3 5 1 15
8 23 7 7 19 28 26 45 7 18 17 33 22 33 5 0 8 3 7 8 -1 4 11 32 27 62 16 30 30
57 30 60 3 14 41 86 48 91 4 3 9 16 10 27 1 12 5 22 10 22 4 0 5 5 2 10 -3 6
-2 10 3 10 9 0 22 27 27 55 1 6 10 28 20 50 10 22 19 42 20 45 1 3 7 19 14 35
6 17 16 41 21 55 5 14 15 39 21 55 7 17 13 32 14 35 7 29 40 126 44 130 3 3 7
12 8 20 1 8 9 40 18 70 9 30 18 65 21 77 2 12 9 34 14 49 6 14 8 30 4 35 -3 5
-1 9 4 9 9 0 10 3 15 55 2 17 6 35 9 40 6 11 31 119 33 150 1 11 7 45 14 75
19 95 43 274 45 343 0 20 3 37 7 37 3 0 6 7 6 15 0 8 -4 15 -9 15 -5 0 -6 6
-1 13 4 6 9 32 10 57 6 91 9 465 4 474 -2 5 -5 38 -5 72 -1 34 -4 65 -8 69 -4
4 -3 18 2 31 5 13 6 24 2 24 -4 0 -9 24 -10 53 -2 47 -8 92 -12 92 -1 0 -3 16
-5 35 -3 41 -13 116 -19 146 -2 12 -7 37 -10 55 -5 32 -9 49 -23 109 -3 14 -6
35 -6 48 -1 12 -4 22 -8 22 -4 0 -6 8 -4 18 1 9 -2 23 -8 30 -5 6 -7 12 -4 12
3 0 1 15 -4 33 -9 28 -17 62 -23 92 -1 6 -5 16 -9 23 -5 6 -5 17 -2 22 3 6 1
10 -4 10 -6 0 -10 3 -10 8 1 4 0 10 -1 15 -1 4 -4 16 -5 27 -1 11 -4 22 -5 25
-1 3 -3 8 -5 13 -1 4 -7 21 -14 37 -7 17 -15 43 -18 60 -4 16 -12 41 -20 55
-7 14 -13 31 -13 38 0 7 -9 31 -20 54 -11 22 -17 45 -14 49 3 5 0 9 -5 9 -6 0
-11 9 -11 19 0 11 -5 23 -10 26 -6 4 -8 11 -5 16 4 5 1 9 -4 9 -6 0 -10 3 -9
8 1 8 -9 39 -23 64 -5 10 -9 25 -9 33 0 8 -4 15 -10 15 -5 0 -10 6 -10 13 0 7
-9 30 -20 52 -11 22 -20 45 -20 52 0 7 -4 13 -9 13 -5 0 -12 14 -16 30 -4 17
-11 30 -16 30 -5 0 -8 3 -7 8 1 4 -9 27 -22 52 -13 25 -23 48 -22 53 1 4 -3 7
-8 7 -6 0 -10 7 -10 15 0 8 -5 15 -11 15 -5 0 -7 5 -4 10 3 6 2 10 -3 10 -6 0
-13 11 -16 24 -3 14 -12 31 -19 38 -7 7 -19 26 -27 42 -29 57 -35 66 -42 66
-5 0 -8 6 -8 13 0 8 -9 24 -20 37 -11 13 -20 29 -20 37 0 7 -7 16 -15 19 -8 4
-12 10 -9 15 3 5 0 9 -5 9 -6 0 -11 6 -11 14 0 8 -7 16 -15 20 -8 3 -15 12
-15 21 0 8 -4 15 -10 15 -5 0 -17 16 -26 35 -9 19 -20 32 -25 29 -5 -3 -8 -2
-7 3 4 11 -44 83 -54 83 -5 0 -8 5 -8 11 0 5 -13 24 -30 42 -16 18 -30 35 -30
38 0 3 -10 17 -22 31 -13 14 -41 46 -63 72 -22 26 -63 71 -91 101 -28 30 -49
55 -47 55 2 0 -2 7 -11 15 -8 8 -19 15 -25 15 -6 0 -11 5 -11 10 0 13 -43 56
-52 53 -5 -2 -8 3 -8 10 0 6 -16 26 -36 42 -19 17 -66 59 -104 95 -39 36 -76
70 -83 75 -7 6 -31 26 -53 45 -66 56 -89 74 -90 70 0 -3 -12 7 -26 23 -14 15
-28 27 -32 27 -4 0 -13 6 -21 13 -7 6 -25 21 -41 32 -15 11 -33 26 -41 33 -7
7 -13 10 -13 6 0 -4 -9 3 -20 16 -11 13 -20 20 -20 16 0 -4 -18 6 -39 23 -21
17 -44 31 -50 31 -6 0 -11 3 -11 8 0 4 -17 16 -37 27 -20 11 -41 25 -48 30
-16 15 -68 46 -87 52 -10 3 -18 8 -18 12 0 4 -16 13 -35 21 -19 8 -35 17 -35
22 0 4 -9 8 -20 8 -11 0 -20 4 -20 9 0 5 -15 14 -32 21 -18 8 -39 18 -47 24
-7 5 -20 11 -29 13 -9 1 -22 10 -29 19 -7 10 -13 14 -13 10 0 -5 -6 -4 -12 2
-7 6 -16 11 -20 12 -27 6 -88 35 -88 42 0 4 -9 8 -19 8 -11 0 -23 5 -26 10 -4
6 -10 8 -15 5 -5 -3 -11 -1 -15 5 -4 6 -10 8 -15 5 -4 -3 -10 2 -14 10 -3 8
-12 12 -21 9 -8 -3 -15 -1 -15 6 0 6 -4 8 -10 5 -5 -3 -10 -1 -10 4 0 6 -3 10
-7 9 -5 -1 -24 3 -43 10 -19 7 -37 13 -40 13 -3 1 -22 10 -42 20 -21 11 -38
17 -38 14 0 -3 -13 1 -29 9 -16 9 -31 12 -35 9 -3 -4 -6 -1 -6 5 0 7 -10 12
-23 12 -13 0 -27 3 -31 8 -4 4 -12 8 -17 8 -5 1 -10 2 -11 4 -2 1 -10 3 -18 5
-8 2 -30 8 -47 14 -18 5 -33 7 -33 3 0 -4 -4 -2 -8 5 -4 7 -21 14 -37 17 -17
3 -44 10 -62 15 -17 5 -34 7 -37 3 -3 -3 -6 -1 -6 5 0 5 -6 10 -12 10 -7 1
-62 13 -123 27 -120 27 -166 37 -205 41 -14 2 -25 4 -25 5 0 3 -37 9 -85 14
-25 3 -57 8 -71 11 -32 6 -112 15 -189 20 -30 2 -55 4 -55 5 0 1 -28 3 -63 4
-34 2 -65 6 -69 9 -3 4 -13 2 -23 -3 -10 -5 -20 -6 -24 -3 -11 11 -259 11
-273 0 -8 -6 -13 -6 -13 0 0 8 -77 13 -84 5z"/>
</g>
</svg>
